<?xml version="1.0" ?><svg height="1024" preserveAspectRatio="xMidYMid" viewBox="0 0 1024 1024" width="1024" xmlns="http://www.w3.org/2000/svg" xmlns:xlink="http://www.w3.org/1999/xlink"><defs><style>
      .cls-1, .cls-3 {
        fill: #fff;
      }

      .cls-2 {
        fill: #55acee;
      }

      .cls-3, .cls-4, .cls-5, .cls-6, .cls-7 {
        fill-rule: evenodd;
      }

      .cls-4, .cls-5, .cls-6 {
        fill: #010101;
      }

      .cls-4 {
        opacity: 0.05;
      }

      .cls-5 {
        opacity: 0.1;
      }

      .cls-6 {
        opacity: 0.15;
      }

      .cls-7 {
        fill: #000;
        opacity: 0.2;
      }
    </style></defs><circle class="cls-1" cx="512" cy="512" r="512"/><circle class="cls-2" cx="513" cy="513" r="501"/><path class="cls-3" d="M891.133,233.341 C861.143,251.100 827.926,263.994 792.588,270.979 C764.303,240.789 724.028,221.996 679.411,221.996 C593.740,221.996 524.301,291.435 524.301,377.017 C524.301,389.151 525.685,401.001 528.317,412.327 C399.436,405.871 285.154,344.131 208.662,250.339 C195.306,273.194 187.690,299.828 187.690,328.266 C187.690,382.071 215.096,429.529 256.666,457.296 C231.244,456.446 207.348,449.456 186.424,437.832 L186.424,439.769 C186.424,514.885 239.895,577.518 310.807,591.819 C297.820,595.324 284.119,597.260 269.956,597.260 C259.940,597.260 250.255,596.245 240.750,594.445 C260.497,656.025 317.752,700.857 385.594,702.146 C332.539,743.705 265.638,768.473 193.001,768.473 C180.472,768.473 168.132,767.736 155.995,766.352 C224.649,810.310 306.125,835.999 393.739,835.999 C679.000,835.999 834.984,599.749 834.984,394.871 L834.479,374.783 C864.880,353.010 891.223,325.706 911.986,294.642 C884.165,306.955 854.316,315.329 822.942,319.065 C854.963,299.875 879.506,269.458 891.133,233.341 Z"/><path class="cls-4" d="M0.008,509.066 C0.003,510.043 0.000,511.021 0.000,512.000 C0.000,794.770 229.230,1024.000 512.000,1024.000 C626.613,1024.000 732.430,986.341 817.752,922.721 L0.008,509.066 Z"/><path class="cls-5" d="M0.031,517.724 C0.010,515.819 0.000,513.911 0.000,512.000 C0.000,368.971 58.648,239.640 153.208,146.743 L874.075,874.003 C856.305,891.776 837.234,908.249 817.018,923.267 L0.031,517.724 Z"/><path class="cls-6" d="M872.758,875.315 C889.442,858.747 904.991,841.039 919.279,822.316 L495.341,0.266 C359.576,4.606 237.155,61.801 147.982,151.951 L872.758,875.315 Z"/><path class="cls-7" d="M918.196,823.730 C984.551,737.396 1024.000,629.305 1024.000,512.000 C1024.000,229.230 794.770,-0.000 512.000,-0.000 C504.185,-0.000 496.410,0.175 488.680,0.522 L918.196,823.730 Z"/></svg>